<?xml version="1.0" encoding="UTF-8"?>
<!DOCTYPE svg PUBLIC "-//W3C//DTD SVG 1.0//EN" "http://www.w3.org/TR/2001/REC-SVG-20010904/DTD/svg10.dtd">
<svg fill-opacity="1" xmlns:xlink="http://www.w3.org/1999/xlink" color-rendering="auto" color-interpolation="auto" text-rendering="auto" stroke="black" stroke-linecap="square" stroke-miterlimit="10" shape-rendering="auto" stroke-opacity="1" fill="black" stroke-dasharray="none" font-weight="normal" stroke-width="1" xmlns="http://www.w3.org/2000/svg" font-family="'Dialog'" font-style="normal" stroke-linejoin="miter" font-size="12" stroke-dashoffset="0" image-rendering="auto">
  <!--Unicode Character 'FOOTPRINTS' (U+1F463)-->
  <defs id="genericDefs"/>
  <g>
    <g>
      <path d="M272.5312 142.875 Q272.5312 152.7188 266.2031 152.7188 Q256.7812 152.7188 256.7812 145.2656 Q256.7812 142.5938 258.8203 139.0781 Q260.8594 135.5625 263.3906 135.5625 Q264.5156 135.5625 266.5547 136.0547 Q268.5938 136.5469 269.4375 136.6875 Q272.5312 139.3594 272.5312 142.875 ZM262.125 125.7188 Q262.125 128.1094 260.5781 131.7656 Q258.75 135.9844 256.7812 135.9844 Q252.8438 135.9844 251.1562 135 Q250.7344 134.7188 249.6094 132.9609 Q248.4844 131.2031 247.6406 131.2031 Q247.3594 131.2031 246.7266 131.4141 Q246.0938 131.625 245.8125 131.625 Q241.4531 131.625 239.3438 130.6406 Q238.5 129.6562 236.8125 127.6875 Q236.1094 130.3594 233.7188 135.5625 Q227.5312 144.8438 222.3281 144.8438 Q217.125 144.8438 213.0469 141.75 Q208.9688 138.6562 208.9688 133.5938 Q208.9688 122.0625 220.9219 113.625 Q223.3125 111.9375 223.4531 111.9375 Q228.375 111.9375 232.1719 113.9062 Q234 114.8906 235.9688 120.2344 Q237.7969 118.125 239.7656 115.875 Q241.7344 113.625 244.5469 113.625 Q252.5625 113.625 252.7031 122.0625 Q254.9531 120.6562 255.2344 120.6562 Q262.125 120.6562 262.125 125.7188 ZM281.8125 195.75 Q281.8125 204.75 280.6875 208.2656 Q277.7344 217.4062 270.5625 233.1562 Q262.6875 250.4531 260.0156 257.9062 Q255.9375 269.4375 253.8281 280.2656 Q252.7031 291.375 249.1875 313.1719 Q247.5 320.4844 241.875 329.2031 Q235.2656 339.3281 229.3594 340.4531 Q227.1094 340.875 223.875 340.875 Q219.9375 340.875 213.75 339.3281 Q206.7188 337.6406 204.6094 335.5312 Q198 328.9219 198 320.3438 Q198 301.5 202.5 292.3594 Q206.0156 285.3281 212.7656 277.0312 Q218.8125 270 224.7188 262.9688 Q224.8594 262.6875 228.375 256.3594 Q229.3594 254.8125 231.1875 251.5781 Q238.7812 235.2656 238.7812 222.3281 Q238.7812 209.5312 235.2656 206.1562 Q232.0312 204.8906 226.2656 202.6406 Q214.3125 197.7188 209.5312 188.1562 Q205.0312 179.1562 205.0312 170.0156 Q205.0312 166.7812 208.4062 159.8906 Q216.1406 144 235.2656 144 Q254.6719 144 265.7812 165.375 Q268.4531 154.9688 272.8125 154.9688 Q280.9688 154.9688 280.9688 162 Q280.9688 171.4219 271.6875 172.2656 Q278.1562 181.2656 279.1406 182.9531 Q281.8125 188.2969 281.8125 195.75 ZM84.375 92.3906 Q84.375 97.4531 80.1562 100.5469 Q75.9375 103.6406 70.7344 103.6406 Q64.9688 103.6406 59.4844 94.2188 Q58.9219 93.0938 56.8125 86.9062 Q55.4062 87.75 54.1406 88.7344 Q51.3281 90.4219 47.25 90.4219 Q46.125 90.4219 45.5625 89.5781 Q44.7188 90.4219 42.1875 93.7969 Q41.3438 93.7969 39.375 94.2891 Q37.4062 94.7812 36.2812 94.7812 Q34.4531 94.7812 32.7656 90.4219 Q31.2188 86.7656 31.2188 84.5156 Q31.2188 79.4531 37.6875 79.4531 Q38.25 79.4531 40.6406 80.8594 Q41.2031 72.4219 48.6562 72.4219 Q52.7344 72.4219 56.9531 79.4531 Q57.2344 78.3281 57.7969 76.0781 Q59.7656 70.7344 69.6094 70.7344 Q72.2812 70.7344 76.6406 75.2344 Q84.375 83.25 84.375 92.3906 ZM36.5625 104.0625 Q36.5625 111.5156 27.1406 111.5156 Q20.8125 111.5156 20.8125 101.6719 Q20.8125 94.3594 29.8125 94.3594 Q32.4844 94.3594 34.7344 97.875 Q36.5625 101.1094 36.5625 104.0625 ZM95.3438 276.75 Q95.3438 299.6719 69.6094 299.6719 Q61.0312 299.6719 55.2656 293.4844 Q51.8906 289.8281 46.8281 279.8438 Q44.2969 274.7812 42.3281 260.1562 Q40.9219 249.4688 39.5156 238.9219 Q37.6875 228.6562 33.3281 216.5625 Q25.3125 200.3906 12.5156 167.0625 Q11.5312 163.5469 11.5312 153.8438 Q11.5312 145.125 21.6562 131.0625 Q20.3906 131.0625 17.8594 130.6406 Q12.375 129.0938 12.375 122.0625 Q12.375 113.625 20.25 113.625 Q26.2969 113.625 27.5625 124.1719 Q40.2188 102.6562 57.7969 102.6562 Q73.125 102.6562 81.5625 112.3594 Q83.3906 114.4688 85.8516 120.375 Q88.3125 126.2812 88.3125 128.8125 Q88.3125 134.4375 85.2188 142.7344 Q81.9844 151.4531 78.0469 154.6875 Q71.8594 159.75 65.8125 161.8594 Q63.4219 162.2812 58.9219 164.25 Q54.5625 167.9062 54.5625 177.75 Q54.5625 188.2969 58.7812 200.25 Q60.0469 204.1875 63 212.0625 Q65.25 217.4062 70.7344 223.5938 Q75.5156 228.7969 80.1562 234 Q81.7031 236.5312 84.9375 241.4531 Q91.5469 251.1562 93.5156 258.3281 Q95.3438 264.7969 95.3438 276.75 Z" stroke="none"/>
    </g>
  </g>
</svg>